PathFileType	4	(X/Y/Z)	S:\OneDrive - The University of Tokyo\ìåëÂéˆã∆\ÉoÉCÉÅÉJ\ë™íË\hirabayashi_2\Trimmed\Trimmed_BarR40kg1.trc
DataRate	CameraRate	NumFrames	NumMarkers	Units	OrigDataRate	OrigDataStartFrame	OrigNumFrames
200.00	200.00	       12	12	mm	200.00	220	       293
Frame#	Time	BarR0			BarR50			BarR100			BarR130			BarR180			BarR230			BarL0			BarL50			BarL100			BarL130			BarL180			BarL230			
		X1	Y1	Z1	X2	Y2	Z2	X3	Y3	Z3	X4	Y4	Z4	X5	Y5	Z5	X6	Y6	Z6	X7	Y7	Z7	X8	Y8	Z8	X9	Y9	Z9	X10	Y10	Z10	X11	Y11	Z11	X12	Y12	Z12	

220	1.095	-576.48505	2754.32642	1664.19727	-603.62463	2305.06445	1653.44910	-637.40143	1851.37695	1646.80762	-660.75824	1349.63379	1646.73083	-689.73169	903.01227	1653.56628	-713.82831	455.32504	1663.99927	-1113.56140	2808.15601	1664.69727	-1140.70129	2356.49683	1667.87817	-1171.18396	1906.05701	1668.76746	-1198.94946	1404.28857	1669.18506	-1226.75610	952.64758	1668.30798	-1244.52515	506.41052	1667.65955	
221	1.100	-576.49335	2754.31494	1664.19580	-603.60724	2305.07983	1653.45215	-637.39404	1851.37976	1646.80432	-660.75513	1349.62524	1646.73816	-689.73328	902.98315	1653.55286	-713.81171	455.31686	1663.99146	-1113.54150	2808.16528	1664.67932	-1140.71582	2356.50610	1667.87549	-1171.18872	1906.04883	1668.76306	-1198.97974	1404.25403	1669.14087	-1226.73901	952.65277	1668.30542	-1244.53015	506.40305	1667.65051	
222	1.105	-576.48315	2754.31372	1664.18750	-603.63007	2305.07617	1653.43311	-637.39185	1851.40601	1646.82251	-660.75989	1349.62732	1646.72400	-689.73022	903.03894	1653.55396	-713.80377	455.33487	1663.98950	-1113.53027	2808.16675	1664.68738	-1140.69360	2356.48535	1667.88098	-1171.17969	1906.04016	1668.75586	-1198.97363	1404.24744	1669.15088	-1226.72900	952.66095	1668.31555	-1244.51257	506.38873	1667.64893	
223	1.110	-576.48499	2754.31348	1664.19055	-603.60815	2305.07837	1653.45300	-637.40393	1851.36963	1646.81665	-660.76331	1349.63806	1646.72534	-689.71930	903.05371	1653.53503	-713.84094	455.33255	1663.98535	-1113.55481	2808.13843	1664.68311	-1140.69702	2356.49146	1667.86157	-1171.19666	1906.03625	1668.76086	-1198.98474	1404.22217	1669.13342	-1226.74414	952.64502	1668.31824	-1244.53149	506.40390	1667.65552	
224	1.115	-576.48676	2754.29810	1664.18396	-603.60522	2305.06934	1653.43250	-637.39624	1851.39148	1646.80823	-660.78131	1349.61768	1646.72754	-689.73615	903.01263	1653.55811	-713.84229	455.32141	1663.99585	-1113.52991	2808.16309	1664.68347	-1140.70532	2356.50000	1667.87988	-1171.20825	1906.04224	1668.75122	-1198.98889	1404.26587	1669.12817	-1226.75085	952.64246	1668.31934	-1244.51367	506.41507	1667.63867	
225	1.120	-576.47845	2754.30981	1664.19092	-603.59485	2305.05347	1653.45544	-637.39691	1851.38831	1646.79504	-660.76904	1349.63940	1646.72461	-689.73065	902.99011	1653.55627	-713.83319	455.35464	1663.99658	-1113.53223	2808.14331	1664.68213	-1140.69495	2356.47900	1667.88135	-1171.17419	1906.04016	1668.75806	-1198.97314	1404.27075	1669.14441	-1226.74854	952.63861	1668.32935	-1244.51489	506.40265	1667.65063	
226	1.125	-576.48932	2754.32788	1664.20825	-603.62140	2305.05469	1653.45190	-637.39514	1851.39880	1646.80847	-660.77112	1349.61963	1646.73926	-689.73712	903.01978	1653.54932	-713.82184	455.33411	1663.99854	-1113.54065	2808.17603	1664.69116	-1140.70532	2356.49414	1667.88110	-1171.18079	1906.06299	1668.76526	-1198.98438	1404.25244	1669.13892	-1226.73901	952.65918	1668.32031	-1244.51831	506.38702	1667.65234	
227	1.130	-576.46869	2754.32031	1664.19275	-603.62646	2305.07739	1653.44299	-637.38000	1851.40137	1646.81409	-660.77515	1349.64001	1646.72888	-689.72144	903.01440	1653.56287	-713.83405	455.33521	1663.99353	-1113.53748	2808.16919	1664.68945	-1140.69604	2356.49023	1667.88953	-1171.16418	1906.03284	1668.76770	-1198.97119	1404.23938	1669.16052	-1226.74243	952.65808	1668.32959	-1244.52063	506.41144	1667.65442	
228	1.135	-576.46527	2754.30029	1664.20093	-603.60535	2305.06860	1653.47668	-637.39264	1851.39099	1646.81836	-660.76666	1349.62683	1646.73315	-689.73950	903.02869	1653.55042	-713.83411	455.32129	1663.98438	-1113.51819	2808.17920	1664.68042	-1140.68884	2356.49829	1667.88672	-1171.17651	1906.06409	1668.76099	-1198.97046	1404.26880	1669.13208	-1226.18005	952.73810	1668.29968	-1244.52136	506.40573	1667.65027	
229	1.140	-576.48322	2754.30347	1664.18677	-603.62622	2305.08447	1653.43433	-637.38977	1851.40173	1646.81409	-660.76984	1349.62744	1646.73267	-689.71875	903.02246	1653.55212	-713.83911	455.35306	1663.98450	-1113.52161	2808.15918	1664.68018	-1140.70007	2356.47192	1667.86633	-1171.17737	1906.05078	1668.76306	-1198.96533	1404.27856	1669.13269	-1226.74902	952.63800	1668.30151	-1244.52612	506.40851	1667.63977	
230	1.145	-576.48199	2754.31372	1664.19788	-603.60522	2305.07642	1653.44861	-637.39490	1851.40381	1646.81213	-660.76495	1349.61877	1646.73499	-689.72070	903.02545	1653.74915	-713.82715	455.35721	1663.98047	-1113.56030	2808.15283	1664.68237	-1140.70947	2356.48193	1667.86719	-1171.18591	1906.06128	1668.76318	-1198.94849	1404.26709	1669.19202	-1226.74768	952.65747	1668.30310	-1244.53345	506.42233	1667.63464	
231	1.150	-576.48291	2754.31592	1664.18054	-603.58356	2305.09741	1653.44482	-637.39355	1851.40198	1646.80920	-660.76025	1349.61633	1646.73816	-689.71863	903.01068	1653.56653	-713.83325	455.32385	1663.99304	-1113.52759	2808.15210	1664.68030	-1140.70715	2356.50049	1667.88306	-1171.18018	1906.07153	1668.76465	-1198.99121	1404.26965	1669.14148	-1226.74927	952.65302	1668.31555	-1244.52551	506.42023	1667.63843	
